<svg width="247" height="247" viewBox="0 0 247 247" fill="none" xmlns="http://www.w3.org/2000/svg">
<circle cx="123.5" cy="123.5" r="123.5" fill="#F5F5F5"/>
<rect x="66.0312" y="111" width="4.93548" height="51" rx="2.46774" fill="#5465BD"/>
<rect x="94" y="134.033" width="4.93549" height="51" rx="2.46774" transform="rotate(90 94 134.033)" fill="#5465BD"/>
<path fill-rule="evenodd" clip-rule="evenodd" d="M109.691 96.5043L94 95.8647L106.884 89.4686L111.987 84.8635L122.83 82.8167L137.245 87.9336L140.562 78.0836L160.463 69.1292L212 58L209.959 73.0947L179.598 91.8991L169.137 104.947L153.319 109.424L157.274 108.273L171.816 125.926L184.318 145.626L200.646 162H193.63L182.022 146.777L163.269 133.985L135.077 124.903L122.192 109.936L117.728 101.877L109.691 96.5043Z" fill="#5465BD"/>
<path d="M46.08 189.24C44.8 189.24 43.608 189.032 42.504 188.616C41.416 188.184 40.464 187.584 39.648 186.816C38.848 186.032 38.224 185.112 37.776 184.056C37.328 183 37.104 181.848 37.104 180.6C37.104 179.352 37.328 178.2 37.776 177.144C38.224 176.088 38.856 175.176 39.672 174.408C40.488 173.624 41.44 173.024 42.528 172.608C43.616 172.176 44.808 171.96 46.104 171.96C47.48 171.96 48.736 172.2 49.872 172.68C51.008 173.144 51.968 173.84 52.752 174.768L50.736 176.664C50.128 176.008 49.448 175.52 48.696 175.2C47.944 174.864 47.128 174.696 46.248 174.696C45.368 174.696 44.56 174.84 43.824 175.128C43.104 175.416 42.472 175.824 41.928 176.352C41.4 176.88 40.984 177.504 40.68 178.224C40.392 178.944 40.248 179.736 40.248 180.6C40.248 181.464 40.392 182.256 40.68 182.976C40.984 183.696 41.4 184.32 41.928 184.848C42.472 185.376 43.104 185.784 43.824 186.072C44.56 186.36 45.368 186.504 46.248 186.504C47.128 186.504 47.944 186.344 48.696 186.024C49.448 185.688 50.128 185.184 50.736 184.512L52.752 186.432C51.968 187.344 51.008 188.04 49.872 188.52C48.736 189 47.472 189.24 46.08 189.24ZM60.7967 189.168C59.3727 189.168 58.1247 188.888 57.0527 188.328C55.9967 187.752 55.1727 186.968 54.5807 185.976C54.0047 184.984 53.7167 183.856 53.7167 182.592C53.7167 181.312 53.9967 180.184 54.5567 179.208C55.1327 178.216 55.9167 177.44 56.9087 176.88C57.9167 176.32 59.0607 176.04 60.3407 176.04C61.5887 176.04 62.7007 176.312 63.6767 176.856C64.6527 177.4 65.4207 178.168 65.9807 179.16C66.5407 180.152 66.8207 181.32 66.8207 182.664C66.8207 182.792 66.8127 182.936 66.7967 183.096C66.7967 183.256 66.7887 183.408 66.7727 183.552H56.0927V181.56H65.1887L64.0127 182.184C64.0287 181.448 63.8767 180.8 63.5567 180.24C63.2367 179.68 62.7967 179.24 62.2367 178.92C61.6927 178.6 61.0607 178.44 60.3407 178.44C59.6047 178.44 58.9567 178.6 58.3967 178.92C57.8527 179.24 57.4207 179.688 57.1007 180.264C56.7967 180.824 56.6447 181.488 56.6447 182.256V182.736C56.6447 183.504 56.8207 184.184 57.1727 184.776C57.5247 185.368 58.0207 185.824 58.6607 186.144C59.3007 186.464 60.0367 186.624 60.8687 186.624C61.5887 186.624 62.2367 186.512 62.8127 186.288C63.3887 186.064 63.9007 185.712 64.3487 185.232L65.9567 187.08C65.3807 187.752 64.6527 188.272 63.7727 188.64C62.9087 188.992 61.9167 189.168 60.7967 189.168ZM77.2059 189.168C76.1659 189.168 75.2139 188.928 74.3499 188.448C73.5019 187.968 72.8219 187.248 72.3099 186.288C71.8139 185.312 71.5659 184.08 71.5659 182.592C71.5659 181.088 71.8059 179.856 72.2859 178.896C72.7819 177.936 73.4539 177.224 74.3019 176.76C75.1499 176.28 76.1179 176.04 77.2059 176.04C78.4699 176.04 79.5819 176.312 80.5419 176.856C81.5179 177.4 82.2859 178.16 82.8459 179.136C83.4219 180.112 83.7099 181.264 83.7099 182.592C83.7099 183.92 83.4219 185.08 82.8459 186.072C82.2859 187.048 81.5179 187.808 80.5419 188.352C79.5819 188.896 78.4699 189.168 77.2059 189.168ZM70.1019 193.656V176.184H72.9579V179.208L72.8619 182.616L73.1019 186.024V193.656H70.1019ZM76.8699 186.6C77.5899 186.6 78.2299 186.44 78.7899 186.12C79.3659 185.8 79.8219 185.336 80.1579 184.728C80.4939 184.12 80.6619 183.408 80.6619 182.592C80.6619 181.76 80.4939 181.048 80.1579 180.456C79.8219 179.848 79.3659 179.384 78.7899 179.064C78.2299 178.744 77.5899 178.584 76.8699 178.584C76.1499 178.584 75.5019 178.744 74.9259 179.064C74.3499 179.384 73.8939 179.848 73.5579 180.456C73.2219 181.048 73.0539 181.76 73.0539 182.592C73.0539 183.408 73.2219 184.12 73.5579 184.728C73.8939 185.336 74.3499 185.8 74.9259 186.12C75.5019 186.44 76.1499 186.6 76.8699 186.6ZM88.8909 189V178.008L89.5869 178.728H84.3789V176.184H96.3789V178.728H91.1949L91.8909 178.008V189H88.8909ZM98.5551 189V176.184H101.555V184.632L108.635 176.184H111.371V189H108.371V180.552L101.315 189H98.5551ZM123.543 189.24C123.527 189.24 123.455 189.24 123.327 189.24C123.215 189.24 123.103 189.24 122.991 189.24C122.895 189.24 122.831 189.24 122.799 189.24C120.095 189.208 117.999 188.624 116.511 187.488C115.023 186.336 114.279 184.696 114.279 182.568C114.279 180.456 115.023 178.84 116.511 177.72C117.999 176.6 120.119 176.024 122.871 175.992C122.903 175.992 122.967 175.992 123.063 175.992C123.175 175.992 123.279 175.992 123.375 175.992C123.487 175.992 123.551 175.992 123.567 175.992C126.335 175.992 128.487 176.56 130.023 177.696C131.575 178.816 132.351 180.44 132.351 182.568C132.351 184.712 131.575 186.36 130.023 187.512C128.487 188.664 126.327 189.24 123.543 189.24ZM123.447 186.744C124.807 186.744 125.927 186.592 126.807 186.288C127.687 185.968 128.343 185.504 128.775 184.896C129.207 184.272 129.423 183.496 129.423 182.568C129.423 181.656 129.207 180.904 128.775 180.312C128.343 179.704 127.687 179.256 126.807 178.968C125.927 178.664 124.807 178.512 123.447 178.512C123.415 178.512 123.335 178.512 123.207 178.512C123.095 178.512 123.023 178.512 122.991 178.512C121.663 178.512 120.575 178.672 119.727 178.992C118.879 179.296 118.247 179.744 117.831 180.336C117.431 180.928 117.231 181.672 117.231 182.568C117.231 183.48 117.431 184.24 117.831 184.848C118.247 185.456 118.879 185.92 119.727 186.24C120.591 186.56 121.679 186.728 122.991 186.744C123.023 186.744 123.095 186.744 123.207 186.744C123.335 186.744 123.415 186.744 123.447 186.744ZM121.887 193.656V171.192H124.719V193.656H121.887ZM135.258 189V176.184H138.258V184.632L145.338 176.184H148.074V189H145.074V180.552L138.018 189H135.258ZM161.302 189L156.67 182.856L159.118 181.344L164.83 189H161.302ZM152.11 189V176.184H155.11V189H152.11ZM154.222 183.864V181.368H158.566V183.864H154.222ZM159.406 182.952L156.598 182.616L161.302 176.184H164.518L159.406 182.952ZM174.487 189V186.408L174.319 185.856V181.32C174.319 180.44 174.055 179.76 173.527 179.28C172.999 178.784 172.199 178.536 171.127 178.536C170.407 178.536 169.695 178.648 168.991 178.872C168.303 179.096 167.719 179.408 167.239 179.808L166.063 177.624C166.751 177.096 167.567 176.704 168.511 176.448C169.471 176.176 170.463 176.04 171.487 176.04C173.343 176.04 174.775 176.488 175.783 177.384C176.807 178.264 177.319 179.632 177.319 181.488V189H174.487ZM170.455 189.168C169.495 189.168 168.655 189.008 167.935 188.688C167.215 188.352 166.655 187.896 166.255 187.32C165.871 186.728 165.679 186.064 165.679 185.328C165.679 184.608 165.847 183.96 166.183 183.384C166.535 182.808 167.103 182.352 167.887 182.016C168.671 181.68 169.711 181.512 171.007 181.512H174.727V183.504H171.223C170.199 183.504 169.511 183.672 169.159 184.008C168.807 184.328 168.631 184.728 168.631 185.208C168.631 185.752 168.847 186.184 169.279 186.504C169.711 186.824 170.311 186.984 171.079 186.984C171.815 186.984 172.471 186.816 173.047 186.48C173.639 186.144 174.063 185.648 174.319 184.992L174.823 186.792C174.535 187.544 174.015 188.128 173.263 188.544C172.527 188.96 171.591 189.168 170.455 189.168ZM183.696 189V178.008L184.392 178.728H179.184V176.184H191.184V178.728H186L186.696 178.008V189H183.696ZM206.296 189V176.184H209.296V189H206.296ZM199.6 180.408C201.248 180.408 202.496 180.776 203.344 181.512C204.208 182.248 204.64 183.288 204.64 184.632C204.64 186.024 204.16 187.112 203.2 187.896C202.256 188.664 200.912 189.04 199.168 189.024L193.36 189V176.184H196.36V180.384L199.6 180.408ZM198.904 186.816C199.784 186.832 200.456 186.648 200.92 186.264C201.384 185.88 201.616 185.32 201.616 184.584C201.616 183.848 201.384 183.32 200.92 183C200.472 182.664 199.8 182.488 198.904 182.472L196.36 182.448V186.792L198.904 186.816Z" fill="#5465BD"/>
</svg>
