<svg width="216" height="49" viewBox="0 0 216 49" fill="none" xmlns="http://www.w3.org/2000/svg">
<g id="Sloi_x0020_1">
<path id="Vector" d="M0 40.2764V22.2006C0 19.4058 0.697388 17.2558 2.08403 15.7425C3.47881 14.2294 5.51296 13.477 8.19475 13.477C10.8764 13.477 12.9522 14.2295 14.43 15.7425C15.8996 17.2475 16.6385 19.3974 16.6385 22.1922V25.5825H11.1589V21.8532C11.1589 19.5794 10.2206 18.4383 8.33599 18.4383C6.43454 18.4383 5.47989 19.5794 5.47989 21.8615V40.6401C5.47989 42.9057 6.43468 44.0386 8.33599 44.0386C10.2206 44.0386 11.1589 42.9057 11.1589 40.6401V35.6539H16.6385V40.2761C16.6385 43.0711 15.8996 45.2293 14.43 46.7342C12.9522 48.2475 10.8764 48.9998 8.19475 48.9998C5.51296 48.9998 3.47881 48.2474 2.08403 46.7342C0.697526 45.221 0 43.0715 0 40.2764ZM194.646 7.98908L191.381 7.83976L194.077 6.52065L195.133 5.56466L197.395 5.13538L200.399 6.21653L201.089 4.1654L205.254 2.30763L216 0L215.58 3.14038L209.251 7.01923L207.076 9.72923L204.594 10.4323L207.632 14.0806L210.224 18.1711L213.632 21.565H212.172L209.755 18.3912L205.843 15.7466L199.965 13.8795L197.265 10.7555L196.338 9.08999L194.646 7.98908ZM19.6607 48.6032V13.8739H25.1403V43.642H34.157V48.6034L19.6607 48.6032ZM36.5399 48.6032V13.8739H51.4846V18.8353H42.0196V28.5098H49.4919V33.4713H42.0196V43.642H51.4846V48.6034L36.5399 48.6032ZM53.4109 48.6032L58.957 13.8739H67.3925L72.9387 48.6032H67.4589L66.5041 42.3023H59.8371L58.8906 48.6032H53.4109ZM60.5511 37.589H65.7901L63.1664 20.2328L60.5511 37.589ZM75.064 48.6032V13.8739H82.4534L88.066 34.6784V13.8739H92.948V48.6032H87.3187L80.5438 23.4658V48.6032H75.064ZM103.642 40.2764V22.2006C103.642 19.4058 104.339 17.2558 105.726 15.7425C107.121 14.2294 109.155 13.477 111.836 13.477C114.518 13.477 116.594 14.2295 118.072 15.7425C119.541 17.2475 120.28 19.3974 120.28 22.1922V25.5825H114.801V21.8532C114.801 19.5794 113.862 18.4383 111.978 18.4383C110.076 18.4383 109.122 19.5794 109.122 21.8615V40.6401C109.122 42.9057 110.076 44.0386 111.978 44.0386C113.862 44.0386 114.801 42.9057 114.801 40.6401V35.6539H120.28V40.2761C120.28 43.0711 119.541 45.2293 118.072 46.7342C116.594 48.2475 114.518 48.9998 111.836 48.9998C109.155 48.9998 107.121 48.2474 105.726 46.7342C104.339 45.221 103.642 43.0715 103.642 40.2764ZM123.302 48.6032V13.8739H128.782V43.642H137.799V48.6034L123.302 48.6032ZM140.182 48.6032V13.8739H145.661V48.6032H140.182ZM149.597 48.6032V13.8739H156.986L162.599 34.6784V13.8739H167.481V48.6032H161.851L155.077 23.4658V48.6032H149.597ZM170.91 48.6032V13.8739H176.389V48.6032H170.91ZM179.926 40.2764V22.2006C179.926 19.4058 180.624 17.2558 182.01 15.7425C183.405 14.2294 185.439 13.477 188.121 13.477C190.803 13.477 192.878 14.2295 194.356 15.7425C195.826 17.2475 196.565 19.3974 196.565 22.1922V25.5825H191.085V21.8532C191.085 19.5794 190.147 18.4383 188.262 18.4383C186.361 18.4383 185.406 19.5794 185.406 21.8615V40.6401C185.406 42.9057 186.361 44.0386 188.262 44.0386C190.147 44.0386 191.085 42.9057 191.085 40.6401V35.6539H196.565V40.2761C196.565 43.0711 195.826 45.2293 194.356 46.7342C192.878 48.2475 190.803 48.9998 188.121 48.9998C185.439 48.9998 183.405 48.2474 182.01 46.7342C180.624 45.221 179.926 43.0715 179.926 40.2764Z" fill="#F5F5F5"/>
</g>
</svg>
