<svg width="910" height="910" viewBox="0 0 910 910" fill="none" xmlns="http://www.w3.org/2000/svg">
<circle cx="455" cy="455" r="455" fill="url(#paint0_linear_332_4631)"/>
<path opacity="0.1" d="M791.069 664.178L784.212 660.154L770.261 668.201V684.296L784.212 692.343L791.069 688.32L797.926 684.296V668.201L791.069 664.178ZM832.212 599.089L816.842 590.095L786.103 607.846V643.349L816.842 661.101L847.581 643.349V607.846L832.212 599.089ZM800.527 544.651L785.158 535.657L754.419 553.408V588.911L769.788 597.669L785.158 606.426L800.527 597.669L815.897 588.911V553.408L800.527 544.651ZM785.394 534.237C796.034 540.391 806.675 546.544 817.315 552.698V588.911C827.956 595.065 838.36 601.219 849 607.136V644.296C838.36 650.45 827.483 656.604 816.842 662.994C806.202 656.84 795.325 650.686 784.685 644.296V608.083L769.079 599.089L753 589.858C753 577.55 753 565.006 753 552.698C763.64 546.308 774.281 540.154 785.158 534L785.394 534.237ZM784.685 658.734L792.015 662.994L799.818 667.491V685.243L792.015 689.503L784.212 694L768.842 685.006V667.254L784.212 658.26L784.685 658.734Z" fill="#F5F5F5"/>
<path opacity="0.1" d="M430.671 84.2871L427.396 78.499L433.946 67.0792L447.202 67.0792L453.752 78.499L450.477 84.2871L447.202 90.0752L433.946 90.0752L430.671 84.2871ZM377.336 117.921L370.006 105.249L384.51 79.9069L413.673 79.9069L428.176 105.249L413.673 130.592L384.51 130.592L377.336 117.921ZM332.577 91.796L325.248 79.1247L339.751 53.7822L368.914 53.7822L376.244 66.4535L383.574 79.1247L376.244 91.796L368.914 104.467L339.751 104.467L332.577 91.796ZM324.156 79.5941C329.146 88.3545 334.137 97.1148 339.283 105.875L368.914 105.875C373.905 114.636 378.895 123.24 383.886 132L414.452 132C419.599 123.24 424.589 114.323 429.736 105.562C424.589 96.802 419.599 87.8851 414.452 79.1247L384.821 79.1247L377.492 66.297L369.85 53C359.713 53 349.576 53 339.283 53C334.137 61.7604 329.146 70.6772 324 79.4376L324.156 79.5941ZM426.149 78.8119L429.58 84.9129L433.167 91.3267L447.826 91.3267L451.413 84.9129L455 78.499L447.67 65.8277L433.011 65.8277L425.681 78.499L426.149 78.8119Z" fill="#F5F5F5"/>
<path opacity="0.1" d="M209.526 771.238V789.598L212.237 788.046V772.79L209.526 771.238ZM208.752 790.115V770.721L205.654 768.911L199.07 765.032L192.487 768.911L185.904 772.79V788.046L199.07 795.675L208.752 790.115ZM209.526 770.333L213.011 772.402V788.564L209.526 790.632V796.58L222.951 804.337L236.376 812.095L249.801 804.337L263.225 796.58V765.55L249.801 757.792L236.376 750.034L222.951 757.792L209.526 765.55V770.333ZM199.199 764.386L206.041 768.265L208.752 769.816V765.032L222.564 757.016L236.376 749L236.634 749.129L250.188 757.016L264 765.032V796.968L250.188 804.984L236.376 813L222.564 804.984L208.752 796.968V791.02C205.525 792.83 202.297 794.77 199.07 796.58C194.423 793.865 189.776 791.149 185 788.434V772.273L191.971 768.265L198.941 764.257L199.199 764.386Z" fill="#F5F5F5"/>
<defs>
<linearGradient id="paint0_linear_332_4631" x1="455" y1="0" x2="455" y2="910" gradientUnits="userSpaceOnUse">
<stop stop-color="#571A75"/>
<stop offset="1" stop-color="#A46AC2"/>
</linearGradient>
</defs>
</svg>
