<svg width="300" height="69" viewBox="0 0 300 69" fill="none" xmlns="http://www.w3.org/2000/svg">
<path d="M0 56.7157V31.2621C0 27.3265 0.968594 24.299 2.89449 22.168C4.83168 20.0372 7.65689 18.9778 11.3816 18.9778C15.1061 18.9778 17.9891 20.0374 20.0417 22.168C22.0828 24.2872 23.109 27.3147 23.109 31.2503V36.0243H15.4985V30.7729C15.4985 27.571 14.1953 25.9641 11.5778 25.9641C8.93686 25.9641 7.61096 27.571 7.61096 30.7845V57.2279C7.61096 60.4182 8.93705 62.0135 11.5778 62.0135C14.1953 62.0135 15.4985 60.4182 15.4985 57.2279V50.2065H23.109V56.7154C23.109 60.6511 22.0828 63.6902 20.0417 65.8094C17.9891 67.9404 15.1061 68.9998 11.3816 68.9998C7.65689 68.9998 4.83168 67.9402 2.89449 65.8094C0.968786 63.6786 0 60.6517 0 56.7157ZM270.341 11.2499L265.807 11.0397L269.551 9.18214L271.017 7.83595L274.159 7.23146L278.331 8.75389L279.29 5.86556L285.075 3.24952L300 0L299.416 4.42217L290.626 9.88422L287.605 13.7003L284.158 14.6904L288.378 19.8278L291.978 25.5878L296.711 30.3671H294.683L291.326 25.8978L285.893 22.1738L277.73 19.5447L273.98 15.1455L272.692 12.8002L270.341 11.2499ZM27.3065 68.4413V19.5367H34.917V61.455H47.4402V68.4415L27.3065 68.4413ZM50.7498 68.4413V19.5367H71.5064V26.5231H58.3606V40.1464H68.7388V47.133H58.3606V61.455H71.5064V68.4415L50.7498 68.4413ZM74.1817 68.4413L81.8848 19.5367H93.6007L101.304 68.4413H93.6929L92.3669 59.5685H83.1071L81.7925 68.4413H74.1817ZM84.0987 52.9315H91.3751L87.7311 28.491L84.0987 52.9315ZM104.256 68.4413V19.5367H114.519L122.314 48.8328V19.5367H129.094V68.4413H121.276L111.866 33.0436V68.4413H104.256ZM143.947 56.7157V31.2621C143.947 27.3265 144.915 24.299 146.841 22.168C148.779 20.0372 151.604 18.9778 155.328 18.9778C159.053 18.9778 161.936 20.0374 163.988 22.168C166.03 24.2872 167.056 27.3147 167.056 31.2503V36.0243H159.445V30.7729C159.445 27.571 158.142 25.9641 155.525 25.9641C152.884 25.9641 151.558 27.571 151.558 30.7845V57.2279C151.558 60.4182 152.884 62.0135 155.525 62.0135C158.142 62.0135 159.445 60.4182 159.445 57.2279V50.2065H167.056V56.7154C167.056 60.6511 166.03 63.6902 163.988 65.8094C161.936 67.9404 159.053 68.9998 155.328 68.9998C151.604 68.9998 148.779 67.9402 146.841 65.8094C144.916 63.6786 143.947 60.6517 143.947 56.7157ZM171.253 68.4413V19.5367H178.864V61.455H191.387V68.4415L171.253 68.4413ZM194.697 68.4413V19.5367H202.307V68.4413H194.697ZM207.773 68.4413V19.5367H218.036L225.831 48.8328V19.5367H232.612V68.4413H224.794L215.384 33.0436V68.4413H207.773ZM237.375 68.4413V19.5367H244.985V68.4413H237.375ZM249.898 56.7157V31.2621C249.898 27.3265 250.866 24.299 252.792 22.168C254.729 20.0372 257.555 18.9778 261.279 18.9778C265.004 18.9778 267.887 20.0374 269.939 22.168C271.98 24.2872 273.007 27.3147 273.007 31.2503V36.0243H265.396V30.7729C265.396 27.571 264.093 25.9641 261.475 25.9641C258.835 25.9641 257.509 27.571 257.509 30.7845V57.2279C257.509 60.4182 258.835 62.0135 261.475 62.0135C264.093 62.0135 265.396 60.4182 265.396 57.2279V50.2065H273.007V56.7154C273.007 60.6511 271.98 63.6902 269.939 65.8094C267.887 67.9404 265.004 68.9998 261.279 68.9998C257.555 68.9998 254.729 67.9402 252.792 65.8094C250.866 63.6786 249.898 60.6517 249.898 56.7157Z" fill="#5465BD"/>
</svg>
